<svg width="158" height="63" viewBox="0 0 158 63" fill="none" xmlns="http://www.w3.org/2000/svg">
  <path fill-rule="evenodd" clip-rule="evenodd"
    d="M82.9632 52.7785V37.2669L66.2313 30.2819L75.013 21.0906L63.5037 10.088L60.2396 16.8225L60.3648 10.3481L45.7792 15.3677L46.1548 23.8075L48.6319 23.1139L51.2074 52.8941L61.4916 51.2659L61.4737 41.3231L82.9632 52.7785Z"
    fill="#0B0000" />
  <path fill-rule="evenodd" clip-rule="evenodd"
    d="M48.5241 17.534L57.3864 14.6919L57.9319 24.5287L64.4601 14.6533L70.8363 21.1951L61.9204 31.321L80.2709 39.1539V48.1621L58.9514 36.6682L58.9871 48.7113L53.4695 49.5206L51.1175 19.3935L48.6314 20.0872L48.5241 17.534Z"
    fill="white" />
  <path fill-rule="evenodd" clip-rule="evenodd"
    d="M115.719 11.5707H106.061L105.784 13.276H95.6249L90.8763 44.5592L102.466 46.5246L103.101 42.035L106.133 48.0565L107.975 44.2124L108.654 50.523L121.791 53.0183L115.719 11.5707Z"
    fill="#0B0000" />
  <path fill-rule="evenodd" clip-rule="evenodd"
    d="M108.601 14.4624H113.52L118.501 49.3104L111.239 48.1157L109.308 34.3287L106.58 41.9304L102.485 32.4307H102.44L100.821 43.443L94.0157 42.1616L98.0668 16.0714H104.953L106.67 26.1876L108.601 14.4624Z"
    fill="white" />
  <path fill-rule="evenodd" clip-rule="evenodd"
    d="M128.016 14.4229L142.548 17.8624L143.63 23.6431L144.802 18.4308L157.17 21.6584L145.294 60.206L136.181 57.1133L136.11 53.2499L127.364 51.93L130.315 23.6431L128.124 23.1132L128.016 14.4229Z"
    fill="#0B0000" />
  <path fill-rule="evenodd" clip-rule="evenodd"
    d="M130.601 18.0354L140.072 20.0875L143.264 36.3699L146.528 21.7736L153.736 23.4982L143.586 56.6216L138.542 54.9933L138.104 34.9729L135.564 50.417L130.065 49.4824L132.533 21.4364L130.458 20.839L130.601 18.0354Z"
    fill="white" />
  <path fill-rule="evenodd" clip-rule="evenodd"
    d="M126.621 47.4783C123.482 48.75 120.147 48.6055 117.464 47.064C114.978 45.6477 113.243 43.1909 112.572 40.1561C111.231 34.1056 114.942 27.1977 120.844 24.7601C124.019 23.4691 127.381 23.6233 130.082 25.1744C132.541 26.5811 134.258 28.98 134.911 31.9282C136.28 38.0654 132.568 45.0408 126.621 47.4783Z"
    fill="#0B0000" />
  <path fill-rule="evenodd" clip-rule="evenodd"
    d="M132.611 32.4881C131.538 27.6323 126.727 25.1948 121.79 27.1988C117.006 29.1739 113.867 34.7522 114.949 39.608C116.058 44.618 120.825 47.0459 125.761 45.0419C130.581 43.0764 133.72 37.4595 132.611 32.4881Z"
    fill="white" />
  <path fill-rule="evenodd" clip-rule="evenodd"
    d="M129.026 33.3441C128.927 36.0225 126.763 38.0457 124.116 37.9301C121.514 37.8145 119.511 35.6178 119.609 32.9394C119.707 30.4248 121.863 28.4016 124.51 28.5172C127.121 28.6328 129.124 30.8295 129.026 33.3441Z"
    fill="#0B0000" />
  <path fill-rule="evenodd" clip-rule="evenodd"
    d="M125.662 28.6328C124.079 28.5654 122.756 29.7408 122.693 31.2534C122.64 32.766 123.874 34.0571 125.457 34.1245C127.039 34.1919 128.363 33.0165 128.426 31.5039C128.479 29.9913 127.245 28.7003 125.662 28.6328Z"
    fill="white" />
  <path fill-rule="evenodd" clip-rule="evenodd"
    d="M46.5021 50.8517C43.2917 52.3162 39.8129 52.3162 36.9602 50.8421C34.3221 49.474 32.4173 47.0076 31.6035 43.8763C29.9759 37.6428 33.562 30.2917 39.6073 27.4881C42.8535 26.014 46.359 26.014 49.2297 27.5073C51.8409 28.8561 53.7189 31.2744 54.5148 34.3093C56.1782 40.6295 52.5832 48.0577 46.5021 50.8517Z"
    fill="#0B0000" />
  <path fill-rule="evenodd" clip-rule="evenodd"
    d="M52.2167 34.6943C50.8932 29.6459 45.7601 27.3143 40.6627 29.6459C35.7174 31.9389 32.65 37.9315 33.9735 42.98C35.3328 48.1923 40.4302 50.5142 45.5276 48.1923C50.5087 45.8993 53.576 39.8584 52.2167 34.6943Z"
    fill="white" />
  <path fill-rule="evenodd" clip-rule="evenodd"
    d="M48.7657 35.6571C48.7657 38.3355 46.6821 40.4455 44.035 40.4455C41.4327 40.4455 39.349 38.3355 39.349 35.6571C39.349 33.1425 41.4327 31.0229 44.0797 31.0229C46.6821 31.0229 48.7657 33.1329 48.7657 35.6571Z"
    fill="#0B0000" />
  <path fill-rule="evenodd" clip-rule="evenodd"
    d="M45.2324 31.09C43.6496 31.09 42.3618 32.3232 42.3618 33.8358C42.3618 35.3484 43.6406 36.5816 45.2324 36.5816C46.8153 36.5816 48.1031 35.3484 48.1031 33.8358C48.1031 32.3232 46.8153 31.09 45.2324 31.09Z"
    fill="white" />
  <path fill-rule="evenodd" clip-rule="evenodd"
    d="M28.7867 41.5449C35.6905 36.0821 38.9815 27.8253 36.4864 21.6304C35.3954 18.9231 33.4817 16.6879 31.1387 15.2812C29.4932 14.1058 27.5347 13.364 25.4779 13.1135C20.4342 12.1596 14.3799 13.1424 8.42407 15.8689C6.2331 16.8709 4.18521 18.027 2.343 19.2892L0 20.8789L1.40401 23.4416L5.76807 31.3901C5.76807 31.3901 7.10949 33.8373 7.11843 33.8276L9.48826 32.5848L9.81914 32.4114L20.6667 58.5112L21.713 61.0162L24.1454 60.178L30.0208 58.1547L32.5963 57.2684L31.9167 54.4551L28.7867 41.5449Z"
    fill="black" />
  <path fill-rule="evenodd" clip-rule="evenodd"
    d="M33.8644 22.8526C32.9969 20.7041 31.5035 19.0181 29.5539 17.833C28.141 16.8214 26.5045 16.3204 24.9753 16.1374C20.6291 15.3184 15.2187 16.0892 9.52218 18.6905C7.49218 19.6154 5.59631 20.6752 3.85248 21.8699L8.21654 29.8183C9.33438 29.2306 10.5417 28.6044 11.1945 28.2287L23.2583 57.2381L29.1336 55.2149L25.5118 40.2043C32.4603 35.6087 35.9659 28.0649 33.8644 22.8526Z"
    fill="white" />
  <path fill-rule="evenodd" clip-rule="evenodd"
    d="M95.5811 30.4842L91.4496 26.4763L93.4796 24.1544L95.3039 22.0637L93.6227 19.8381C90.3407 15.4833 85.0913 13.7395 79.5826 15.175C71.9186 17.1597 67.5993 24.27 69.3073 32.0643C69.9959 35.2051 71.8202 37.8932 74.4584 39.637C77.6062 41.7277 81.5678 42.2961 85.601 41.246C89.8578 40.138 92.9877 38.2785 95.7332 35.2244L97.9331 32.7772L95.5811 30.4842Z"
    fill="#0B0000" />
  <path fill-rule="evenodd" clip-rule="evenodd"
    d="M89.2294 28.586C88.192 29.9059 87.0026 31.1102 84.8922 31.6594C84.1857 31.8425 83.2288 32.0159 82.6207 31.9003L91.5009 21.7166C88.9969 18.3927 84.8832 16.8512 80.224 18.0651C74.4291 19.5681 70.5122 24.7707 71.9609 31.3993C73.1235 36.7272 78.5964 39.9933 84.9458 38.3458C88.7912 37.3438 91.4651 35.7444 93.8617 33.0757L89.2294 28.586Z"
    fill="white" />
  <path fill-rule="evenodd" clip-rule="evenodd"
    d="M75.3605 13.4979L86.2349 0L92.2533 9.68267L78.5083 17.6408L75.3605 13.4979Z" fill="#0B0000" />
  <path fill-rule="evenodd" clip-rule="evenodd"
    d="M85.7691 4.29663L88.9528 8.95973L79.858 13.8155L79.2231 12.7846L85.7691 4.29663Z"
    fill="white" />
  <path fill-rule="evenodd" clip-rule="evenodd"
    d="M79.0287 28.7392C78.3759 27.4578 78.5011 25.8103 79.4759 24.6638C80.4148 23.5559 81.8457 23.2379 83.0708 23.7486L79.0287 28.7392ZM79.4759 24.6638C78.51 25.8103 78.3759 27.4578 79.0287 28.7392L83.0708 23.7486C81.8457 23.2379 80.4059 23.5559 79.4759 24.6638ZM85.3155 22.9971C83.2407 20.9642 80.0392 21.128 78.1523 23.3632C76.2654 25.5984 76.4174 29.0475 78.4921 31.0804C78.6621 31.2538 78.8499 31.3984 79.0377 31.5332L85.6821 23.3824C85.5569 23.2476 85.4407 23.1223 85.3155 22.9971ZM79.0287 28.7392C78.3759 27.4578 78.5011 25.8103 79.4759 24.6638C80.4148 23.5559 81.8457 23.2379 83.0708 23.7486L79.0287 28.7392Z"
    fill="black" />
  <path fill-rule="evenodd" clip-rule="evenodd"
    d="M29.297 27.8149C28.7783 24.7415 25.067 23.0169 21.3469 25.1654L22.2769 28.6916L23.7435 33.8942L24.4142 36.2643C27.2044 34.3663 30.0124 32.0733 29.297 27.8149ZM25.6036 32.5165C25.2012 31.0906 24.3337 28.0172 24.3337 28.0172C24.3427 28.0365 24.1549 27.3524 23.9581 26.5913C24.7451 26.4372 25.4963 26.5142 26.1223 26.8418C26.4711 27.0249 27.0702 27.4391 27.1954 28.2292C27.4905 29.9923 26.9271 31.2544 25.6036 32.5165Z"
    fill="black" />
  <path fill-rule="evenodd" clip-rule="evenodd"
    d="M30.8906 62.8946C30.8995 62.9235 30.9084 62.9428 30.9174 62.9717C30.9174 62.9813 30.9263 62.9909 30.9263 63.0006C30.9174 62.962 30.8995 62.9331 30.8906 62.8946Z"
    fill="black" />
  <path fill-rule="evenodd" clip-rule="evenodd"
    d="M147.912 56.7093H150.586V57.1332H149.477V60.2644H149.021V57.1332H147.912V56.7093Z"
    fill="black" />
  <path fill-rule="evenodd" clip-rule="evenodd"
    d="M150.982 60.2644V56.7093H151.626L152.574 59.7153L153.513 56.7093H154.148V60.2644H153.727V58.1641C153.727 58.087 153.727 57.9714 153.736 57.8076C153.736 57.6438 153.736 57.4608 153.736 57.2681L152.797 60.2644H152.359L151.411 57.2681V57.3741C151.411 57.4608 151.411 57.5957 151.42 57.7691C151.42 57.9425 151.429 58.0774 151.429 58.1641V60.2644H150.982Z"
    fill="black" />
</svg>